<svg version="1.2" xmlns="http://www.w3.org/2000/svg" viewBox="0 0 154 32" width="154" height="32">
	<title>logo</title>
	<style>
		tspan { white-space:pre } 
		.s0 { fill: #465fff } 
		.s1 { fill: #ffffff } 
		.s2 { opacity: .9;fill: #ffffff } 
		.s3 { opacity: .7;fill: #ffffff } 
		.t4 { font-size: 24px;fill: #101828;font-weight: 700;font-family: "Outfit-Bold", "Outfit" } 
	</style>
	<path class="s0" d="m0 8.4c0-4.6 3.8-8.4 8.4-8.4h15.2c4.6 0 8.4 3.8 8.4 8.4v15.2c0 4.6-3.8 8.4-8.4 8.4h-15.2c-4.6 0-8.4-3.8-8.4-8.4z"/>
	<g>
		<path class="s1" d="m8.4 8.4c0-0.9 0.8-1.7 1.7-1.7 0.9 0 1.7 0.8 1.7 1.7v15.2c0 0.9-0.8 1.7-1.7 1.7-0.9 0-1.7-0.8-1.7-1.7z"/>
	</g>
	<g>
		<path class="s2" d="m14.7 15.2c0-1 0.8-1.7 1.7-1.7 1 0 1.7 0.7 1.7 1.7v8.4c0 0.9-0.7 1.7-1.7 1.7-0.9 0-1.7-0.8-1.7-1.7z"/>
	</g>
	<g>
		<path class="s3" d="m21.1 10.9c0-0.9 0.7-1.6 1.6-1.6 1 0 1.7 0.7 1.7 1.6v12.7c0 0.9-0.7 1.7-1.7 1.7-0.9 0-1.6-0.8-1.6-1.7z"/>
	</g>
	<text id="VisitFlow" style="transform: matrix(1,0,0,1,41.545,24.502)" >
		<tspan x="0" y="0" class="t4" dx="0" >V</tspan><tspan  y="0" class="t4" dx="0" >i</tspan><tspan  y="0" class="t4" dx="0" >s</tspan><tspan  y="0" class="t4" dx="0" >i</tspan><tspan  y="0" class="t4" dx="0" >t</tspan><tspan  y="0" class="t4" dx="0" >F</tspan><tspan  y="0" class="t4" dx="0" >l</tspan><tspan  y="0" class="t4" dx="0" >o</tspan><tspan  y="0" class="t4" dx="0 1" >w
</tspan>
	</text>
</svg>